<?xml version="1.0" encoding="UTF-8"?>
<!DOCTYPE svg PUBLIC "-//W3C//DTD SVG 1.1//EN" "http://www.w3.org/Graphics/SVG/1.1/DTD/svg11.dtd">
<svg xmlns="http://www.w3.org/2000/svg" version="1.1" width="500px" height="500px" style="shape-rendering:geometricPrecision; text-rendering:geometricPrecision; image-rendering:optimizeQuality; fill-rule:evenodd; clip-rule:evenodd" xmlns:xlink="http://www.w3.org/1999/xlink">
<g><path style="opacity:1" fill="#000000" d="M -0.5,-0.5 C 166.167,-0.5 332.833,-0.5 499.5,-0.5C 499.5,166.167 499.5,332.833 499.5,499.5C 332.833,499.5 166.167,499.5 -0.5,499.5C -0.5,332.833 -0.5,166.167 -0.5,-0.5 Z"/></g>
<g><path style="opacity:1" fill="#fdfdfd" d="M 230.5,102.5 C 293.078,95.828 342.911,117.495 380,167.5C 402.717,203.811 410.05,243.144 402,285.5C 388.682,345.149 353.182,384.982 295.5,405C 262.666,414.105 230,413.605 197.5,403.5C 204.708,386.747 212.208,370.081 220,353.5C 221.178,350.467 222.844,347.801 225,345.5C 268.965,357.955 306.298,347.289 337,313.5C 367.542,271.06 366.876,229.06 335,187.5C 309.006,157.256 276.172,144.422 236.5,149C 191.232,161.266 164.398,190.433 156,236.5C 153.147,264.922 160.314,290.422 177.5,313C 165.462,330.237 153.295,347.404 141,364.5C 140.282,365.451 139.449,365.617 138.5,365C 101.631,324.716 88.1314,277.549 98,223.5C 116.893,155.439 161.059,115.105 230.5,102.5 Z"/></g>
</svg>
