<?xml version="1.0" encoding="UTF-8"?>
<!DOCTYPE svg PUBLIC "-//W3C//DTD SVG 1.1//EN" "http://www.w3.org/Graphics/SVG/1.1/DTD/svg11.dtd">
<svg xmlns="http://www.w3.org/2000/svg" version="1.1" width="500px" height="500px" style="shape-rendering:geometricPrecision; text-rendering:geometricPrecision; image-rendering:optimizeQuality; fill-rule:evenodd; clip-rule:evenodd" xmlns:xlink="http://www.w3.org/1999/xlink">
<g><path style="opacity:1" fill="#fefefe" d="M -0.5,-0.5 C 166.167,-0.5 332.833,-0.5 499.5,-0.5C 499.5,166.167 499.5,332.833 499.5,499.5C 332.833,499.5 166.167,499.5 -0.5,499.5C -0.5,332.833 -0.5,166.167 -0.5,-0.5 Z"/></g>
<g><path style="opacity:1" fill="#010101" d="M 230.5,102.5 C 280.306,96.9353 323.639,110.769 360.5,144C 398.788,184.958 412.288,233.124 401,288.5C 384.841,352.659 344.675,392.825 280.5,409C 257.013,412.9 233.679,412.234 210.5,407C 205.992,405.958 201.659,404.458 197.5,402.5C 206.243,383.348 215.243,364.348 224.5,345.5C 268.574,358.088 306.074,347.421 337,313.5C 367.477,271.083 366.81,229.083 335,187.5C 304.558,152.796 267.058,141.296 222.5,153C 180.64,170.865 158.306,202.532 155.5,248C 155.864,272.092 163.197,293.759 177.5,313C 165.418,330.492 153.084,347.825 140.5,365C 137.224,363.763 134.391,361.597 132,358.5C 101.313,320.426 89.6459,277.093 97,228.5C 114.557,157.772 159.057,115.772 230.5,102.5 Z"/></g>
</svg>
