<?xml version="1.0" encoding="UTF-8"?>
<!DOCTYPE svg PUBLIC "-//W3C//DTD SVG 1.1//EN" "http://www.w3.org/Graphics/SVG/1.1/DTD/svg11.dtd">
<svg xmlns="http://www.w3.org/2000/svg" version="1.1" width="500px" height="500px" style="shape-rendering:geometricPrecision; text-rendering:geometricPrecision; image-rendering:optimizeQuality; fill-rule:evenodd; clip-rule:evenodd" xmlns:xlink="http://www.w3.org/1999/xlink">
<g><path style="opacity:1" fill="#fefefe" d="M -0.5,-0.5 C 166.167,-0.5 332.833,-0.5 499.5,-0.5C 499.5,166.167 499.5,332.833 499.5,499.5C 332.833,499.5 166.167,499.5 -0.5,499.5C -0.5,332.833 -0.5,166.167 -0.5,-0.5 Z"/></g>
<g><path style="opacity:1" fill="#040404" d="M 74.5,181.5 C 96.7341,178.404 114.901,185.404 129,202.5C 137.079,215.385 139.745,229.385 137,244.5C 129.618,271.038 112.118,285.372 84.5,287.5C 79.0993,287.12 73.7659,286.287 68.5,285C 67.9781,284.439 67.6448,283.772 67.5,283C 70.0146,277.47 72.6812,271.97 75.5,266.5C 94.2098,269.549 108.71,263.216 119,247.5C 126.027,229.574 121.86,214.741 106.5,203C 84.2527,191.417 67.0861,196.583 55,218.5C 50.6109,231.159 52.4442,242.826 60.5,253.5C 56.1924,259.641 51.6924,265.641 47,271.5C 32.431,254.318 28.7643,234.985 36,213.5C 43.9096,196.81 56.743,186.143 74.5,181.5 Z"/></g>
<g><path style="opacity:1" fill="#060606" d="M 205.5,220.5 C 205.5,221.5 205.5,222.5 205.5,223.5C 201.167,223.5 196.833,223.5 192.5,223.5C 191.857,220.012 189.857,217.512 186.5,216C 180.924,214.528 176.091,215.695 172,219.5C 170.11,224.996 171.943,228.496 177.5,230C 183.212,231.511 188.879,233.178 194.5,235C 204.805,239.11 208.639,246.61 206,257.5C 202.524,265.505 196.357,270.005 187.5,271C 176.421,273.194 166.921,270.36 159,262.5C 156.505,258.515 155.338,254.182 155.5,249.5C 159.833,249.5 164.167,249.5 168.5,249.5C 168.775,254.228 171.108,257.394 175.5,259C 180.257,259.81 184.924,259.476 189.5,258C 193.032,254.61 193.366,250.943 190.5,247C 182.711,243.719 174.711,241.052 166.5,239C 157.927,234.228 155.094,227.061 158,217.5C 160.986,211.18 165.819,207.013 172.5,205C 184.456,202.032 194.622,204.865 203,213.5C 204.411,215.65 205.245,217.984 205.5,220.5 Z"/></g>
<g><path style="opacity:1" fill="#bababa" d="M 276.5,209.5 C 276.5,213.5 276.5,217.5 276.5,221.5C 274.167,221.5 271.833,221.5 269.5,221.5C 271.265,220.539 273.265,220.205 275.5,220.5C 275.185,216.629 275.518,212.962 276.5,209.5 Z"/></g>
<g><path style="opacity:1" fill="#040404" d="M 276.5,209.5 C 280.833,209.5 285.167,209.5 289.5,209.5C 289.5,213.5 289.5,217.5 289.5,221.5C 292.833,221.5 296.167,221.5 299.5,221.5C 299.5,224.833 299.5,228.167 299.5,231.5C 296.167,231.5 292.833,231.5 289.5,231.5C 289.334,240.173 289.5,248.84 290,257.5C 290.308,258.308 290.808,258.975 291.5,259.5C 293.709,260.106 295.876,260.773 298,261.5C 298.953,264.432 299.453,267.432 299.5,270.5C 291.902,272.795 285.068,271.461 279,266.5C 278.138,264.913 277.471,263.246 277,261.5C 276.5,251.506 276.334,241.506 276.5,231.5C 274.167,231.5 271.833,231.5 269.5,231.5C 269.5,228.167 269.5,224.833 269.5,221.5C 271.833,221.5 274.167,221.5 276.5,221.5C 276.5,217.5 276.5,213.5 276.5,209.5 Z"/></g>
<g><path style="opacity:1" fill="#070707" d="M 247.5,270.5 C 247.663,268.143 247.497,265.81 247,263.5C 246.283,264.044 245.783,264.711 245.5,265.5C 237.052,273.097 228.219,273.43 219,266.5C 212.751,253.992 216.251,245.826 229.5,242C 234.53,241.552 239.53,240.886 244.5,240C 247.328,236.308 246.662,233.308 242.5,231C 240.167,230.333 237.833,230.333 235.5,231C 232.967,232.878 230.467,234.711 228,236.5C 224.46,236.037 220.96,235.37 217.5,234.5C 221.256,225.113 228.256,220.446 238.5,220.5C 244.196,220.676 249.529,222.176 254.5,225C 256.617,226.731 258.117,228.898 259,231.5C 259.5,244.496 259.667,257.496 259.5,270.5C 255.5,270.5 251.5,270.5 247.5,270.5 Z"/></g>
<g><path style="opacity:1" fill="#070707" d="M 327.5,220.5 C 348.091,220.038 357.591,230.038 356,250.5C 352.365,266.772 342.199,273.605 325.5,271C 316.904,268.071 311.404,262.237 309,253.5C 305.383,236.713 311.549,225.713 327.5,220.5 Z"/></g>
<g><path style="opacity:1" fill="#070707" d="M 389.5,220.5 C 393.167,220.164 396.5,220.997 399.5,223C 398.167,226.333 396.833,229.667 395.5,233C 390.03,231.392 385.53,232.892 382,237.5C 381.5,248.495 381.333,259.495 381.5,270.5C 376.833,270.5 372.167,270.5 367.5,270.5C 367.5,254.167 367.5,237.833 367.5,221.5C 371.833,221.5 376.167,221.5 380.5,221.5C 380.336,224.187 380.503,226.854 381,229.5C 382.688,225.315 385.521,222.315 389.5,220.5 Z"/></g>
<g><path style="opacity:1" fill="#070707" d="M 436.5,270.5 C 436.663,268.143 436.497,265.81 436,263.5C 435.283,264.044 434.783,264.711 434.5,265.5C 426.052,273.097 417.219,273.43 408,266.5C 401.751,253.992 405.251,245.826 418.5,242C 423.53,241.552 428.53,240.886 433.5,240C 436.328,236.308 435.662,233.308 431.5,231C 429.167,230.333 426.833,230.333 424.5,231C 421.967,232.878 419.467,234.711 417,236.5C 413.46,236.037 409.96,235.37 406.5,234.5C 410.256,225.113 417.256,220.446 427.5,220.5C 433.196,220.676 438.529,222.176 443.5,225C 445.617,226.731 447.117,228.898 448,231.5C 448.5,244.496 448.667,257.496 448.5,270.5C 444.5,270.5 440.5,270.5 436.5,270.5 Z"/></g>
<g><path style="opacity:1" fill="#bababa" d="M 205.5,220.5 C 206.434,221.568 206.768,222.901 206.5,224.5C 201.637,224.819 196.97,224.486 192.5,223.5C 196.833,223.5 201.167,223.5 205.5,223.5C 205.5,222.5 205.5,221.5 205.5,220.5 Z"/></g>
<g><path style="opacity:1" fill="#f8f8f8" d="M 327.5,231.5 C 334.838,229.678 339.671,232.344 342,239.5C 343.814,247.418 341.981,254.251 336.5,260C 328.292,262.141 323.458,258.974 322,250.5C 320.315,243.063 322.149,236.73 327.5,231.5 Z"/></g>
<g><path style="opacity:1" fill="#f2f2f2" d="M 245.5,247.5 C 247.417,258.414 242.751,262.914 231.5,261C 227.928,258.374 227.595,255.374 230.5,252C 235.478,250.072 240.478,248.572 245.5,247.5 Z"/></g>
<g><path style="opacity:1" fill="#f2f2f2" d="M 434.5,247.5 C 436.417,258.414 431.751,262.914 420.5,261C 416.928,258.374 416.595,255.374 419.5,252C 424.478,250.072 429.478,248.572 434.5,247.5 Z"/></g>
<g><path style="opacity:1" fill="#0b0b0b" d="M 466.5,256.5 C 474.161,255.663 477.661,258.996 477,266.5C 473.455,272.209 469.121,272.875 464,268.5C 461.523,263.669 462.356,259.669 466.5,256.5 Z"/></g>
<g><path style="opacity:1" fill="#858585" d="M 247.5,270.5 C 246.833,268.833 246.167,267.167 245.5,265.5C 245.783,264.711 246.283,264.044 247,263.5C 247.497,265.81 247.663,268.143 247.5,270.5 Z"/></g>
<g><path style="opacity:1" fill="#858585" d="M 436.5,270.5 C 435.833,268.833 435.167,267.167 434.5,265.5C 434.783,264.711 435.283,264.044 436,263.5C 436.497,265.81 436.663,268.143 436.5,270.5 Z"/></g>
</svg>
