<?xml version="1.0" encoding="UTF-8"?>
<!DOCTYPE svg PUBLIC "-//W3C//DTD SVG 1.1//EN" "http://www.w3.org/Graphics/SVG/1.1/DTD/svg11.dtd">
<svg xmlns="http://www.w3.org/2000/svg" version="1.1" width="500px" height="500px" style="shape-rendering:geometricPrecision; text-rendering:geometricPrecision; image-rendering:optimizeQuality; fill-rule:evenodd; clip-rule:evenodd" xmlns:xlink="http://www.w3.org/1999/xlink">
<g><path style="opacity:1" fill="#000000" d="M -0.5,-0.5 C 166.167,-0.5 332.833,-0.5 499.5,-0.5C 499.5,166.167 499.5,332.833 499.5,499.5C 332.833,499.5 166.167,499.5 -0.5,499.5C -0.5,332.833 -0.5,166.167 -0.5,-0.5 Z"/></g>
<g><path style="opacity:1" fill="#f9f9f9" d="M 74.5,181.5 C 100.703,178.018 120.203,187.685 133,210.5C 143.152,239.109 135.985,262.275 111.5,280C 96.9493,288.358 81.9493,289.525 66.5,283.5C 69.6822,277.136 72.8489,270.802 76,264.5C 92.1443,269.107 105.478,264.773 116,251.5C 126.937,227.889 120.77,210.389 97.5,199C 78.5741,194.043 64.4074,200.209 55,217.5C 50.7576,230.116 52.2576,241.949 59.5,253C 55.7106,259.409 51.544,265.576 47,271.5C 28.7107,250.312 26.7107,227.645 41,203.5C 49.8226,192.511 60.9893,185.178 74.5,181.5 Z"/></g>
<g><path style="opacity:1" fill="#f8f8f8" d="M 205.5,220.5 C 205.5,221.5 205.5,222.5 205.5,223.5C 201.167,223.5 196.833,223.5 192.5,223.5C 192.201,220.358 190.534,218.191 187.5,217C 181.681,214.37 176.515,215.204 172,219.5C 170.11,224.996 171.943,228.496 177.5,230C 187.645,230.994 196.479,234.827 204,241.5C 210.378,257.241 205.211,267.075 188.5,271C 176.433,273.613 166.266,270.446 158,261.5C 156.856,258.92 156.022,256.253 155.5,253.5C 155.5,252.5 155.5,251.5 155.5,250.5C 159.833,250.5 164.167,250.5 168.5,250.5C 170.209,256.541 174.209,259.541 180.5,259.5C 184.067,259.589 187.4,258.755 190.5,257C 193.077,253.595 193.077,250.262 190.5,247C 183.284,244.361 175.95,242.028 168.5,240C 157.222,234.497 154.055,225.997 159,214.5C 162.414,209.748 166.914,206.581 172.5,205C 179.567,204.161 186.567,204.494 193.5,206C 200.239,208.684 204.239,213.518 205.5,220.5 Z"/></g>
<g><path style="opacity:1" fill="#545454" d="M 276.5,209.5 C 276.5,213.5 276.5,217.5 276.5,221.5C 274.167,221.5 271.833,221.5 269.5,221.5C 271.265,220.539 273.265,220.205 275.5,220.5C 275.185,216.629 275.518,212.962 276.5,209.5 Z"/></g>
<g><path style="opacity:1" fill="#fbfbfb" d="M 276.5,209.5 C 280.833,209.5 285.167,209.5 289.5,209.5C 289.5,213.5 289.5,217.5 289.5,221.5C 292.833,221.5 296.167,221.5 299.5,221.5C 299.5,224.833 299.5,228.167 299.5,231.5C 296.167,231.5 292.833,231.5 289.5,231.5C 289.334,240.173 289.5,248.84 290,257.5C 292.481,259.314 295.315,259.98 298.5,259.5C 299.114,263.135 299.448,266.802 299.5,270.5C 291.855,272.824 285.021,271.491 279,266.5C 278.333,265.167 277.667,263.833 277,262.5C 276.5,252.172 276.334,241.839 276.5,231.5C 274.167,231.5 271.833,231.5 269.5,231.5C 269.5,228.167 269.5,224.833 269.5,221.5C 271.833,221.5 274.167,221.5 276.5,221.5C 276.5,217.5 276.5,213.5 276.5,209.5 Z"/></g>
<g><path style="opacity:1" fill="#505050" d="M 289.5,209.5 C 290.482,212.962 290.815,216.629 290.5,220.5C 293.713,220.19 296.713,220.523 299.5,221.5C 296.167,221.5 292.833,221.5 289.5,221.5C 289.5,217.5 289.5,213.5 289.5,209.5 Z"/></g>
<g><path style="opacity:1" fill="#f4f4f4" d="M 247.5,270.5 C 247.663,268.143 247.497,265.81 247,263.5C 246.283,264.044 245.783,264.711 245.5,265.5C 240.391,271.092 234.057,272.925 226.5,271C 215.98,266.443 213.147,258.943 218,248.5C 221.005,244.913 224.838,242.746 229.5,242C 235.217,241.568 240.717,240.402 246,238.5C 246.208,233.535 243.708,230.868 238.5,230.5C 234.876,230.645 232.209,232.312 230.5,235.5C 226.182,236.54 221.849,236.54 217.5,235.5C 219.318,227.517 224.318,222.684 232.5,221C 240.373,219.501 247.706,220.834 254.5,225C 256.969,227.441 258.802,230.274 260,233.5C 260.5,245.829 260.667,258.162 260.5,270.5C 256.167,270.5 251.833,270.5 247.5,270.5 Z"/></g>
<g><path style="opacity:1" fill="#f7f7f7" d="M 325.5,220.5 C 348.665,219.498 358.831,230.498 356,253.5C 350.775,267.702 340.608,273.535 325.5,271C 311.826,265.501 305.993,255.334 308,240.5C 310.515,230.824 316.349,224.158 325.5,220.5 Z"/></g>
<g><path style="opacity:1" fill="#f9f9f9" d="M 388.5,220.5 C 392.215,220.423 395.881,220.756 399.5,221.5C 398.488,225.515 397.488,229.515 396.5,233.5C 390.15,231.02 385.317,232.687 382,238.5C 381.5,249.161 381.333,259.828 381.5,270.5C 376.833,270.5 372.167,270.5 367.5,270.5C 367.5,254.167 367.5,237.833 367.5,221.5C 371.833,221.5 376.167,221.5 380.5,221.5C 380.336,224.187 380.503,226.854 381,229.5C 382.642,225.7 385.142,222.7 388.5,220.5 Z"/></g>
<g><path style="opacity:1" fill="#f4f4f4" d="M 436.5,270.5 C 436.663,268.143 436.497,265.81 436,263.5C 435.283,264.044 434.783,264.711 434.5,265.5C 429.391,271.092 423.057,272.925 415.5,271C 404.98,266.443 402.147,258.943 407,248.5C 410.005,244.913 413.838,242.746 418.5,242C 424.217,241.568 429.717,240.402 435,238.5C 435.208,233.535 432.708,230.868 427.5,230.5C 423.876,230.645 421.209,232.312 419.5,235.5C 415.182,236.54 410.849,236.54 406.5,235.5C 408.318,227.517 413.318,222.684 421.5,221C 429.373,219.501 436.706,220.834 443.5,225C 445.969,227.441 447.802,230.274 449,233.5C 449.5,245.829 449.667,258.162 449.5,270.5C 445.167,270.5 440.833,270.5 436.5,270.5 Z"/></g>
<g><path style="opacity:1" fill="#535353" d="M 205.5,220.5 C 206.434,221.568 206.768,222.901 206.5,224.5C 201.637,224.819 196.97,224.486 192.5,223.5C 196.833,223.5 201.167,223.5 205.5,223.5C 205.5,222.5 205.5,221.5 205.5,220.5 Z"/></g>
<g><path style="opacity:1" fill="#040404" d="M 328.5,231.5 C 335.339,230.166 339.839,232.832 342,239.5C 342.661,244.558 342.328,249.558 341,254.5C 337.707,260.612 332.873,262.112 326.5,259C 324.683,257.2 323.516,255.034 323,252.5C 322.333,247.833 322.333,243.167 323,238.5C 323.967,235.379 325.8,233.046 328.5,231.5 Z"/></g>
<g><path style="opacity:1" fill="#0a0a0a" d="M 245.5,247.5 C 248.108,255.93 244.941,260.597 236,261.5C 230.246,261.739 228.246,259.072 230,253.5C 230.833,252.667 231.667,251.833 232.5,251C 237.085,250.238 241.419,249.071 245.5,247.5 Z"/></g>
<g><path style="opacity:1" fill="#0a0a0a" d="M 434.5,247.5 C 437.108,255.93 433.941,260.597 425,261.5C 419.246,261.739 417.246,259.072 419,253.5C 419.833,252.667 420.667,251.833 421.5,251C 426.085,250.238 430.419,249.071 434.5,247.5 Z"/></g>
<g><path style="opacity:1" fill="#949494" d="M 168.5,250.5 C 164.167,250.5 159.833,250.5 155.5,250.5C 155.5,251.5 155.5,252.5 155.5,253.5C 154.566,252.432 154.232,251.099 154.5,249.5C 159.363,249.181 164.03,249.514 168.5,250.5 Z"/></g>
<g><path style="opacity:1" fill="#f5f5f5" d="M 465.5,256.5 C 469.257,256.071 472.757,256.737 476,258.5C 479.215,267.58 476.048,271.747 466.5,271C 461.577,266.456 461.244,261.623 465.5,256.5 Z"/></g>
<g><path style="opacity:1" fill="#8b8b8b" d="M 247.5,270.5 C 246.833,268.833 246.167,267.167 245.5,265.5C 245.783,264.711 246.283,264.044 247,263.5C 247.497,265.81 247.663,268.143 247.5,270.5 Z"/></g>
<g><path style="opacity:1" fill="#8b8b8b" d="M 436.5,270.5 C 435.833,268.833 435.167,267.167 434.5,265.5C 434.783,264.711 435.283,264.044 436,263.5C 436.497,265.81 436.663,268.143 436.5,270.5 Z"/></g>
</svg>
